<?xml version="1.0" encoding="UTF-8" standalone="no"?>
<!DOCTYPE svg PUBLIC "-//W3C//DTD SVG 1.1//EN" "http://www.w3.org/Graphics/SVG/1.1/DTD/svg11.dtd">
<svg width="100%" height="100%" viewBox="0 0 64 64" version="1.1" xmlns="http://www.w3.org/2000/svg" xmlns:xlink="http://www.w3.org/1999/xlink" xml:space="preserve" xmlns:serif="http://www.serif.com/" style="fill-rule:evenodd;clip-rule:evenodd;stroke-linejoin:round;stroke-miterlimit:2;">
    <g transform="matrix(1,0,0,1,-4.78008,-2.39004)">
        <path d="M16.797,9.327C16.797,8.576 16.187,7.967 15.437,7.967L7.402,7.967C6.651,7.967 6.041,8.576 6.041,9.327L6.041,58.922C6.041,59.673 6.651,60.282 7.402,60.282L15.437,60.282C16.187,60.282 16.797,59.673 16.797,58.922L16.797,9.327Z" style="fill:rgba(255, 255, 255, 0.9);"/>
    </g>
    <g transform="matrix(1,0,0,1,8.63071,-2.25726)">
        <path d="M16.797,9.327C16.797,8.576 16.187,7.967 15.437,7.967L7.402,7.967C6.651,7.967 6.041,8.576 6.041,9.327L6.041,58.922C6.041,59.673 6.651,60.282 7.402,60.282L15.437,60.282C16.187,60.282 16.797,59.673 16.797,58.922L16.797,9.327Z" style="fill:rgba(255, 255, 255, 0.9);"/>
    </g>
    <g transform="matrix(0.965926,-0.258819,0.258819,0.965926,18.9097,1.86098)">
        <path d="M16.797,9.327C16.797,8.576 16.187,7.967 15.437,7.967L7.402,7.967C6.651,7.967 6.041,8.576 6.041,9.327L6.041,58.922C6.041,59.673 6.651,60.282 7.402,60.282L15.437,60.282C16.187,60.282 16.797,59.673 16.797,58.922L16.797,9.327Z" style="fill:rgba(255, 255, 255, 0.9);"/>
    </g>
</svg>
